<mxfile host="app.diagrams.net" agent="Mozilla/5.0 (Windows NT 10.0; Win64; x64) AppleWebKit/537.36 (KHTML, like Gecko) Chrome/131.0.0.0 Safari/537.36" version="25.0.3">
  <diagram name="Trang-1" id="b_NixehbxzS2e75vSmH9">
    <mxGraphModel dx="1434" dy="746" grid="1" gridSize="10" guides="1" tooltips="1" connect="1" arrows="1" fold="1" page="1" pageScale="1" pageWidth="827" pageHeight="1169" math="0" shadow="0">
      <root>
        <mxCell id="0" />
        <mxCell id="1" parent="0" />
        <mxCell id="GhmllARgRZjxWK3PzhSQ-2" style="edgeStyle=orthogonalEdgeStyle;rounded=0;orthogonalLoop=1;jettySize=auto;html=1;" parent="1" source="GhmllARgRZjxWK3PzhSQ-1" edge="1">
          <mxGeometry relative="1" as="geometry">
            <mxPoint x="400" y="160" as="targetPoint" />
          </mxGeometry>
        </mxCell>
        <mxCell id="GhmllARgRZjxWK3PzhSQ-1" value="START" style="strokeWidth=2;html=1;shape=mxgraph.flowchart.start_1;whiteSpace=wrap;" parent="1" vertex="1">
          <mxGeometry x="350" y="50" width="100" height="60" as="geometry" />
        </mxCell>
        <mxCell id="GhmllARgRZjxWK3PzhSQ-4" style="edgeStyle=orthogonalEdgeStyle;rounded=0;orthogonalLoop=1;jettySize=auto;html=1;" parent="1" source="GhmllARgRZjxWK3PzhSQ-3" edge="1">
          <mxGeometry relative="1" as="geometry">
            <mxPoint x="400" y="280" as="targetPoint" />
          </mxGeometry>
        </mxCell>
        <mxCell id="GhmllARgRZjxWK3PzhSQ-3" value="num1,num2" style="rounded=1;whiteSpace=wrap;html=1;absoluteArcSize=1;arcSize=14;strokeWidth=2;" parent="1" vertex="1">
          <mxGeometry x="340" y="160" width="120" height="60" as="geometry" />
        </mxCell>
        <mxCell id="GhmllARgRZjxWK3PzhSQ-7" value="" style="edgeStyle=orthogonalEdgeStyle;rounded=0;orthogonalLoop=1;jettySize=auto;html=1;" parent="1" source="GhmllARgRZjxWK3PzhSQ-5" target="GhmllARgRZjxWK3PzhSQ-6" edge="1">
          <mxGeometry relative="1" as="geometry" />
        </mxCell>
        <mxCell id="GhmllARgRZjxWK3PzhSQ-10" style="edgeStyle=orthogonalEdgeStyle;rounded=0;orthogonalLoop=1;jettySize=auto;html=1;exitX=1;exitY=0.5;exitDx=0;exitDy=0;exitPerimeter=0;entryX=1;entryY=0.5;entryDx=0;entryDy=0;" parent="1" source="GhmllARgRZjxWK3PzhSQ-5" target="GhmllARgRZjxWK3PzhSQ-6" edge="1">
          <mxGeometry relative="1" as="geometry">
            <mxPoint x="520" y="470" as="targetPoint" />
            <Array as="points">
              <mxPoint x="521" y="330" />
              <mxPoint x="521" y="470" />
            </Array>
          </mxGeometry>
        </mxCell>
        <mxCell id="GhmllARgRZjxWK3PzhSQ-14" value="đúng" style="edgeLabel;html=1;align=center;verticalAlign=middle;resizable=0;points=[];" parent="GhmllARgRZjxWK3PzhSQ-10" vertex="1" connectable="0">
          <mxGeometry x="0.0221" y="1" relative="1" as="geometry">
            <mxPoint as="offset" />
          </mxGeometry>
        </mxCell>
        <mxCell id="GhmllARgRZjxWK3PzhSQ-11" style="edgeStyle=orthogonalEdgeStyle;rounded=0;orthogonalLoop=1;jettySize=auto;html=1;exitX=0;exitY=0.5;exitDx=0;exitDy=0;exitPerimeter=0;" parent="1" edge="1">
          <mxGeometry relative="1" as="geometry">
            <mxPoint x="330" y="600" as="targetPoint" />
            <mxPoint x="350" y="340" as="sourcePoint" />
            <Array as="points">
              <mxPoint x="350" y="320" />
              <mxPoint x="281" y="320" />
            </Array>
          </mxGeometry>
        </mxCell>
        <mxCell id="GhmllARgRZjxWK3PzhSQ-15" value="sai" style="edgeLabel;html=1;align=center;verticalAlign=middle;resizable=0;points=[];" parent="GhmllARgRZjxWK3PzhSQ-11" vertex="1" connectable="0">
          <mxGeometry x="0.11" y="-2" relative="1" as="geometry">
            <mxPoint as="offset" />
          </mxGeometry>
        </mxCell>
        <mxCell id="GhmllARgRZjxWK3PzhSQ-5" value="a&amp;lt;b" style="strokeWidth=2;html=1;shape=mxgraph.flowchart.decision;whiteSpace=wrap;" parent="1" vertex="1">
          <mxGeometry x="350" y="280" width="100" height="100" as="geometry" />
        </mxCell>
        <mxCell id="GhmllARgRZjxWK3PzhSQ-9" value="" style="edgeStyle=orthogonalEdgeStyle;rounded=0;orthogonalLoop=1;jettySize=auto;html=1;" parent="1" source="GhmllARgRZjxWK3PzhSQ-6" target="GhmllARgRZjxWK3PzhSQ-8" edge="1">
          <mxGeometry relative="1" as="geometry" />
        </mxCell>
        <mxCell id="GhmllARgRZjxWK3PzhSQ-6" value="a &amp;lt; b = a" style="whiteSpace=wrap;html=1;strokeWidth=2;" parent="1" vertex="1">
          <mxGeometry x="340" y="440" width="120" height="60" as="geometry" />
        </mxCell>
        <mxCell id="GhmllARgRZjxWK3PzhSQ-8" value="a &amp;gt;= b = b" style="whiteSpace=wrap;html=1;strokeWidth=2;" parent="1" vertex="1">
          <mxGeometry x="340" y="560" width="120" height="60" as="geometry" />
        </mxCell>
        <mxCell id="GhmllARgRZjxWK3PzhSQ-16" value="START" style="strokeWidth=2;html=1;shape=mxgraph.flowchart.start_1;whiteSpace=wrap;" parent="1" vertex="1">
          <mxGeometry x="350" y="680" width="100" height="60" as="geometry" />
        </mxCell>
        <mxCell id="GhmllARgRZjxWK3PzhSQ-17" style="edgeStyle=orthogonalEdgeStyle;rounded=0;orthogonalLoop=1;jettySize=auto;html=1;entryX=0.5;entryY=0;entryDx=0;entryDy=0;entryPerimeter=0;" parent="1" source="GhmllARgRZjxWK3PzhSQ-8" target="GhmllARgRZjxWK3PzhSQ-16" edge="1">
          <mxGeometry relative="1" as="geometry" />
        </mxCell>
      </root>
    </mxGraphModel>
  </diagram>
</mxfile>
